# xmcd
#
# Track frame offsets:
# 150
# 38012
# 63850
# 109600
# 140600
# 176187
# 204750
# 269662
#
# Disc length: 4208 seconds
#
#
# Revision: 0
# Processed by: cddbd v1.5.1PL0 Copyright (c) Steve Scherf et al.
# Submitted via: FreeRIP 2.90 
#
DISCID=6f106e08
DTITLE=Talat Aziz in Concert - Manzil
DYEAR=1900
DGENRE=Ghazal
TTITLE0=Ret bhari hai in aankon me
TTITLE1=Pyar karana to ek ibadat hai
TTITLE2=Phool ki Khushboo
TTITLE3=AApko Mubarak Ho
TTITLE4=Kabhi yu bhi aa
TTITLE5=Agar talaash Karu
TTITLE6=Kaise chhupau raz-e-gham
TTITLE7=Medly of Hits
EXTD=
EXTT0=Bashir Badr
EXTT1=Masroor Anwar
EXTT2=Ibrahim Ashik
EXTT3=Bashir Badr
EXTT4=Bashir Badr
EXTT5=Bashir Badr
EXTT6=Hasrat Mohani
EXTT7=various lyricist
PLAYORDER=
